<?xml version="1.0" encoding="UTF-8"?>
<svg width="32px" height="32px" viewBox="0 0 32 32" version="1.1" xmlns="http://www.w3.org/2000/svg" xmlns:xlink="http://www.w3.org/1999/xlink">
    <!-- Generator: Sketch 41.2 (35397) - http://www.bohemiancoding.com/sketch -->
    <title>32x32 copy 4</title>
    <desc>Created with Sketch.</desc>
    <defs></defs>
    <g id="Logo" stroke="none" stroke-width="1" fill="none" fill-rule="evenodd">
        <g id="32x32-copy-4" fill="#FFFFFF">
            <g id="32x32" transform="translate(4.000000, 3.000000)">
                <path d="M10.5197941,0.84124418 C11.3372893,0.376637848 12.6640042,0.377372991 13.4802059,0.84124418 L22.3967139,5.90875582 C23.2142091,6.37336215 23.8769199,7.50474599 23.8769199,8.43248836 L23.8769199,18.5675116 C23.8769199,19.4967243 23.2129155,20.627373 22.3967139,21.0912441 L13.4802059,26.1587559 C12.6627107,26.6233622 11.3359958,26.622627 10.5197941,26.1587559 L1.60328606,21.0912441 C0.785790921,20.6266379 0.123080176,19.495254 0.123080176,18.5675116 L0.123080176,8.43248836 C0.123080176,7.5032757 0.787084437,6.37262701 1.60328606,5.90875582 L10.5197941,0.84124418 L10.5197941,0.84124418 Z M14.1905643,14.7196855 L14.1905643,13.6642151 L14.8152086,13.6642151 C15.1890114,13.6642151 15.3955867,13.4172931 15.3955867,13.2187872 C15.3857498,12.8701914 15.0758869,12.6813688 14.7611055,12.6813688 L13.9643152,12.6813688 L13.9643152,17.5036099 L11.1558755,17.5036099 L9.19832906,14.4146642 L9.03110151,14.4146642 L9.61147954,15.4265602 L9.61147954,17.5084515 L6.85714286,17.5084515 L6.85714286,10.125 L9.53770269,10.125 L11.6329659,13.2914113 L11.7952751,13.2914113 L11.214897,12.3569811 L11.214897,10.125 L13.9790706,10.125 L14.2741781,10.125 C17.2842747,10.125 18.2384556,11.4516005 18.2089449,13.0105981 C18.1991079,13.7852553 17.8400605,14.5792789 16.9990041,14.8504089 L18.4745416,17.5084515 L15.5382219,17.5084515 L14.1905643,14.7196855 L14.1905643,14.7196855 Z" id="Combined-Shape"></path>
            </g>
        </g>
    </g>
</svg>